<?xml version="1.0" encoding="UTF-8" standalone="no"?>
<svg
   xmlns:dc="http://purl.org/dc/elements/1.1/"
   xmlns:cc="http://creativecommons.org/ns#"
   xmlns:rdf="http://www.w3.org/1999/02/22-rdf-syntax-ns#"
   xmlns:svg="http://www.w3.org/2000/svg"
   xmlns="http://www.w3.org/2000/svg"
   version="1.1"
   width="347.44135"
   height="390.38351"
   id="svg2">
  <defs
     id="defs4" />
  <metadata
     id="metadata7">
    <rdf:RDF>
      <cc:Work
         rdf:about="">
        <dc:format>image/svg+xml</dc:format>
        <dc:type
           rdf:resource="http://purl.org/dc/dcmitype/StillImage" />
        <dc:title />
      </cc:Work>
    </rdf:RDF>
  </metadata>
  <g transform="translate(-198.32656,-263.07379)">
    <path d="m 372.04722,263.07379 c 6.83956,1e-5 80.9371,41.32548 86.86033,44.74526 5.92325,3.41978 78.76091,46.92739 82.1807,52.85063 3.41977,5.92324 4.67964,90.75632 4.67964,97.59589 0,6.83956 -1.25987,91.67263 -4.67965,97.59587 -3.41978,5.92323 -76.25747,49.43084 -82.1807,52.85062 -5.92323,3.41979 -80.02077,44.74525 -86.86033,44.74525 -6.83956,0 -80.9371,-41.32548 -86.86033,-44.74525 -5.92323,-3.41979 -78.7609,-46.9274 -82.18068,-52.85064 -3.41978,-5.92323 -4.67964,-90.75632 -4.67964,-97.59588 0,-6.83956 1.25986,-91.67264 4.67965,-97.59587 3.41977,-5.92323 76.25745,-49.43085 82.18069,-52.85063 5.92323,-3.41978 80.02076,-44.74525 86.86032,-44.74525 z" style="fill:#006699;fill-opacity:1;stroke:none" />
    <path d="m 286.59471,505.32351 c -2.27985,-3.94882 -3.11976,-60.50421 -3.11976,-65.06392 0,-4.55971 0.83991,-61.11509 3.11976,-65.06392 2.27986,-3.94882 50.83831,-32.9539 54.78713,-35.23375 3.94883,-2.27986 53.34718,-29.83016 57.90689,-29.83016 4.5597,0 53.95806,27.55031 57.90688,29.83017 3.94883,2.27985 52.50727,31.28493 54.78713,35.23375 2.27985,3.94882 3.11976,60.50422 3.11976,65.06392 0,4.55971 -0.83992,61.11509 -3.11977,65.06392 -2.27985,3.94881 -50.8383,32.95389 -54.78713,35.23375 -3.94882,2.27985 -53.34717,29.83016 -57.90688,29.83016 -4.55971,0 -53.95806,-27.55031 -57.90689,-29.83017 -3.94882,-2.27986 -52.50727,-31.28493 -54.78712,-35.23375 z" style="fill:#ffffff;fill-opacity:1;stroke:none" />
    <path d="m 372.04722,377.56117 c 2.78013,10e-6 32.89911,16.79788 35.30678,18.18795 2.40766,1.39006 32.01453,19.07493 33.4046,21.48259 1.39006,2.40766 1.90217,36.8904 1.90217,39.67053 0,2.78013 -0.51211,37.26287 -1.90218,39.67053 -1.39006,2.40766 -30.99694,20.09253 -33.4046,21.48259 -2.40766,1.39007 -32.52664,18.18794 -35.30677,18.18794 -2.78013,0 -32.89911,-16.79788 -35.30677,-18.18794 -2.40766,-1.39007 -32.01454,-19.07493 -33.4046,-21.4826 -1.39007,-2.40766 -1.90217,-36.8904 -1.90217,-39.67053 0,-2.78013 0.5121,-37.26286 1.90217,-39.67052 1.39006,-2.40766 30.99694,-20.09253 33.40461,-21.4826 2.40766,-1.39006 32.52663,-18.18794 35.30676,-18.18794 z" style="fill:#990000;fill-opacity:1;stroke:none" />
  </g>
</svg>
